<svg width="180" height="180" viewBox="0 0 180 180" fill="none" xmlns="http://www.w3.org/2000/svg">
<rect width="180" height="180" rx="42" fill="black"/>
<path d="M122.5 90C113.508 90 105.844 86.8312 99.5062 80.4937C93.1687 74.1562 90 66.4917 90 57.5C90 48.5083 93.1687 40.8438 99.5062 34.5063C105.844 28.1688 113.508 25 122.5 25C131.492 25 139.156 28.1688 145.494 34.5063C151.831 40.8438 155 48.5083 155 57.5C155 66.4917 151.831 74.1562 145.494 80.4937C139.156 86.8312 131.492 90 122.5 90ZM28.9 151.1C27.7083 149.908 26.7604 148.554 26.0563 147.038C25.3521 145.521 25 143.842 25 142V51C25 47.425 26.2729 44.3646 28.8188 41.8188C31.3646 39.2729 34.425 38 38 38H81.55C80.0333 40.925 78.8958 44.0396 78.1375 47.3438C77.3792 50.6479 77 54.0333 77 57.5C77 63.8917 78.1917 69.8229 80.575 75.2937C82.9583 80.7646 86.2083 85.5583 90.325 89.675L28.9 151.1ZM83.5 155V119.9C83.5 115.35 84.8812 111.26 87.6437 107.631C90.4062 104.002 94.0083 101.7 98.45 100.725C102.242 99.8583 106.142 99.2083 110.15 98.775C114.158 98.3417 118.275 98.125 122.5 98.125C125.967 98.125 129.298 98.2604 132.494 98.5313C135.69 98.8021 138.858 99.2083 142 99.75V142C142 145.575 140.727 148.635 138.181 151.181C135.635 153.727 132.575 155 129 155H83.5Z" fill="white"/>
</svg>
