<?xml version="1.0" standalone="no"?>
<!DOCTYPE svg PUBLIC "-//W3C//DTD SVG 20010904//EN"
 "http://www.w3.org/TR/2001/REC-SVG-20010904/DTD/svg10.dtd">
<svg version="1.0" xmlns="http://www.w3.org/2000/svg"
 width="700.000000pt" height="700.000000pt" viewBox="0 0 700.000000 700.000000"
 preserveAspectRatio="xMidYMid meet">
<metadata>
Created by potrace 1.14, written by Peter Selinger 2001-2017
</metadata>
<g transform="translate(0.000000,700.000000) scale(0.100000,-0.100000)"
fill="#000000" stroke="none">
<path d="M950 6985 c-226 -36 -428 -137 -598 -299 -186 -178 -296 -388 -337
-639 -22 -136 -22 -4942 -1 -5087 38 -247 138 -443 320 -626 181 -180 380
-283 623 -319 148 -22 4939 -22 5086 0 251 38 463 149 643 337 166 173 264
373 300 608 21 142 21 4938 0 5080 -36 235 -134 435 -300 608 -135 141 -278
233 -453 292 -190 63 -46 60 -2743 59 -1993 -1 -2471 -3 -2540 -14z m3768
-1275 c268 -28 489 -137 679 -333 191 -198 287 -402 314 -670 42 -422 -149
-813 -514 -1054 -301 -198 -734 -228 -1064 -73 -124 58 -217 124 -323 230
-188 187 -286 386 -321 648 -14 101 -7 275 15 377 74 353 343 671 677 803 174
69 346 92 537 72z m-1547 -477 c-31 -62 -81 -212 -102 -305 -45 -205 -45 -459
0 -667 58 -263 200 -533 383 -726 l38 -40 -1058 -1058 -1057 -1057 -28 32
c-45 55 -86 148 -97 223 -13 95 -13 3155 0 3250 25 177 162 328 335 371 37 9
245 13 828 13 l777 1 -19 -37z m1724 -2043 c66 -5 177 -17 248 -26 l127 -17 0
-748 c0 -516 -3 -764 -11 -801 -39 -181 -195 -324 -379 -348 -42 -5 -412 -10
-847 -10 l-773 0 0 653 c0 618 1 658 20 731 54 211 215 395 405 461 121 41
379 87 595 104 149 12 474 12 615 1z"/>
</g>
</svg>
